# xmcd
#
# Track frame offsets:
#	150
#	38595
#	93679
#	108655
#	138497
#	174069
#
# Disc length: 2595 seconds
#
# Revision: 1
# Processed by: cddbd v1.5.2PL0 Copyright (c) Steve Scherf et al.
# Submitted via: audiograbber 1.83.01
#
DISCID=470a2106
DTITLE=Grateful Dead - 79-12-05 Uptown Theatre, Chicago IL
DYEAR=1900
DGENRE=
TTITLE0=Drums > Space
TTITLE1=Black Peter
TTITLE2=I Need A Miracle
TTITLE3=Bertha
TTITLE4=Good Lovin'
TTITLE5=Johnny B Goode
EXTD=
EXTT0=
EXTT1=
EXTT2=
EXTT3=
EXTT4=
EXTT5=
PLAYORDER=
